<?xml version="1.0" encoding="UTF-8"?>
<svg width="50px" height="50px" viewBox="0 0 50 50" version="1.1" xmlns="http://www.w3.org/2000/svg" xmlns:xlink="http://www.w3.org/1999/xlink">
    <!-- Generator: Sketch 57.1 (83088) - https://sketch.com -->
    <title>50x50</title>
    <desc>Created with Sketch.</desc>
    <g id="50x50" stroke="none" stroke-width="1" fill="none" fill-rule="evenodd">
        <path d="M37.7493882,31.4446551 C37.5731588,31.7930325 37.2847835,32 36.9540675,32 C36.7515182,32 36.5483967,31.9143956 36.3881882,31.7632335 C35.6357805,31.049683 34.6482096,30.6509184 33.5862562,30.6509184 C32.4922612,30.6509184 31.4240139,31.0951942 30.6819053,31.8688844 C30.5485889,32.005418 30.3351683,32.0363006 30.175532,31.929566 C30.0147514,31.8233732 29.950668,31.6158639 30.0416435,31.4489895 C31.1945724,29.1344205 33.1536933,27.2088638 35.5665475,26.036409 C35.6998639,25.9757274 35.8652219,25.9908978 35.9882392,26.0819201 C37.2687627,27.0669123 38,28.5281465 38,30.0847375 C38,30.6660887 37.9147462,31.1206588 37.7493882,31.4446551 M25.0022484,0 C11.1903049,0 0,11.1891728 0,24.9946606 C0,38.8108272 11.1903049,50 25.0022484,50 C25.8515829,50 26.6801196,49.9584087 27.5086564,49.8741021 C18.5099829,47.7979114 11.7777003,39.7286451 11.7777003,30.1013927 C11.7777003,29.1627792 11.8507735,28.1825744 12.0081617,27.2023696 C12.0081617,27.2023696 12.0025407,27.1343622 11.9345265,27.0657929 C11.8715712,26.9871067 11.6461687,26.824676 10.9907591,26.824676 C9.43317744,26.824676 8.00712744,27.3546835 6.74858351,28.4028957 C6.60187517,28.5237351 6.40738825,28.5917424 6.22414336,28.5917424 C5.5687337,28.5917424 5.23259736,27.8627713 5.23259736,26.4261868 C5.23259736,22.4204989 8.49446893,19.1533369 12.5061831,19.1533369 C12.8940327,19.1533369 13.2560257,19.206169 13.5814821,19.2477603 C14.3150238,19.3629793 14.8658827,19.5158553 15.3953818,18.7604681 C18.3059403,14.5760502 22.8730102,11.3145086 27.0364916,10.4495228 C27.7554187,10.298333 28.4895224,10.2247052 29.2028285,10.2247052 C33.5759736,10.2247052 36.5646641,13.0613415 37.9755374,15.8406493 C38.5781095,15.5725543 39.8793731,15.0796416 41.1901925,15.0796416 C42.1339599,15.0796416 42.8208472,15.5253426 43.0619885,16.3071458 C43.3396663,17.1985477 42.9411368,18.3091467 42.1339599,18.886928 C40.7652442,19.8727532 39.3026576,20.7894471 37.8861633,21.6859073 C31.8874224,25.472398 26.2293147,29.0531806 26.2293147,36.9026877 C26.2293147,41.8053979 28.8250967,46.2567867 32.9829571,48.6893133 C42.8731226,45.3597644 50,36.0157822 50,24.9946606 C50,11.1891728 38.8096951,0 25.0022484,0" id="Dolphin-Logo" fill="#4A90E2"></path>
    </g>
</svg>