<svg width="1600" height="990.7" version="1.1" viewBox="0 0 1600 990.7" xml:space="preserve" xmlns="http://www.w3.org/2000/svg"><g transform="matrix(1.333 0 0 -1.333 0 990.7)"><g transform="scale(.1)"><path d="m12000 0h-12000v7430h12000v-7430" fill="#fff"/><g fill="#ee2036"><path d="m6469 1864v154.5h146.6c27.73 0 47.76-6.95 60.06-21 12.4-14.12 18.65-32.38 18.65-54.58 0-16.21-2.67-29.51-8.34-39.52-5.62-10.25-13.1-18.26-22.45-24.23-9.1-5.98-20.05-9.96-32.52-12.2-12.42-1.95-25.3-3-39.15-3zm217.8-32.75c25.52 11.36 38.71 26.79 50.85 46.77 12.15 20.58 16.14 43.24 15.74 74.1-0.37 28.61-11.88 64.41-35.75 85.16-23.66 20.48-56.86 30.99-99.04 30.99h-208.7v-443.2h59.11v189.2h144.2c2.44 0 6.15 0.37 9.95 0.68l72.99-190.7h61.15l-79.47 203.4c2.71 1.12 6.53 2.51 9 3.62"/><path d="m3632 1625-88.79 334.1h-1.47l-88.82-334.1h-79.67l-118.4 443.2h59.63l98.66-370.5h1.14l98.53 370.5h59.75l98.17-370.5h1.47l98.06 370.5h59.37l-118.4-443.2h-79.25"/><path d="m5648 1625h-58.89v179l-170.7 264.2h65.98l133.1-206.1 132.9 206.1h66.85l-169.2-261.9v-181.3"/><path d="m8576 1625h-58.87v179l-170.7 264.2h65.97l133.1-206.1 132.9 206.1h66.87l-169.2-261.9v-181.3"/><path d="m4490 1646-68.42-20.68 172.4 443.2h59.55l172.6-443.2-67.87 20.68-134 345.3h-1.11l-133.1-345.3"/><path d="m7418 1646-68.42-20.68 172.4 443.2h59.55l172.6-443.2-67.87 20.68-134 345.3h-1.11l-133.1-345.3"/><path d="m5804 3454-1274-393.8 1274 2745z"/><path d="m6196 3454 1274-393.8-1274 2745z"/></g></g></g></svg>
