<svg width="140" height="34" viewBox="0 0 140 34" fill="none" xmlns="http://www.w3.org/2000/svg">
<path fill-rule="evenodd" clip-rule="evenodd" d="M38.5284 27.0989C44.2863 27.0989 48.954 22.4187 48.954 16.6453C48.954 10.872 44.2863 6.19171 38.5284 6.19171C32.7705 6.19171 28.1028 10.872 28.1028 16.6453C28.1028 22.4187 32.7705 27.0989 38.5284 27.0989ZM38.5284 32.755C47.4017 32.755 54.595 25.5425 54.595 16.6453C54.595 7.74819 47.4017 0.535644 38.5284 0.535644C29.6551 0.535644 22.4619 7.74819 22.4619 16.6453C22.4619 25.5425 29.6551 32.755 38.5284 32.755Z" fill="#2AE28F"/>
<path fill-rule="evenodd" clip-rule="evenodd" d="M22.2687 31.0666C18.8786 27.2266 16.8206 22.177 16.8206 16.6454C16.8206 11.1833 18.8272 6.1911 22.1415 2.36952L16.7927 0C13.2716 4.61555 11.1797 10.3855 11.1797 16.6454C11.1797 22.9734 13.3174 28.8009 16.9083 33.4412L22.2687 31.0666Z" fill="#2AE28F"/>
<path fill-rule="evenodd" clip-rule="evenodd" d="M6.58767 8.7537C5.96838 11.2822 5.63993 13.9254 5.63993 16.6455C5.63993 19.4353 5.98543 22.1441 6.63587 24.7314L1.05374 25.6608C0.364168 22.7684 -0.000976562 19.7497 -0.000976562 16.6455C-0.000976562 13.6108 0.347989 10.6578 1.00788 7.82471L6.58767 8.7537Z" fill="#E1EC35"/>
<path d="M115.62 25.0594C114.024 25.0594 112.581 24.6977 111.291 23.9743C110.023 23.2509 109.018 22.2644 108.274 21.0148C107.531 19.7652 107.159 18.3622 107.159 16.8057C107.159 15.2273 107.531 13.8242 108.274 12.5966C109.018 11.347 110.023 10.3605 111.291 9.63708C112.581 8.89172 114.024 8.51904 115.62 8.51904C116.867 8.51904 118.014 8.74923 119.064 9.2096C120.113 9.66996 121.021 10.3386 121.786 11.2155L119.097 13.9119C118.681 13.4077 118.178 13.035 117.588 12.7939C116.998 12.5528 116.342 12.4322 115.62 12.4322C114.79 12.4322 114.057 12.6185 113.423 12.9912C112.789 13.3639 112.286 13.8791 111.914 14.5367C111.565 15.1725 111.39 15.9288 111.39 16.8057C111.39 17.6607 111.565 18.417 111.914 19.0747C112.286 19.7323 112.789 20.2475 113.423 20.6202C114.057 20.9929 114.79 21.1792 115.62 21.1792C116.342 21.1792 116.998 21.0586 117.588 20.8175C118.2 20.5544 118.714 20.1708 119.129 19.6666L121.819 22.363C121.032 23.2399 120.113 23.9085 119.064 24.3689C118.014 24.8293 116.867 25.0594 115.62 25.0594Z" fill="#191C20"/>
<path fill-rule="evenodd" clip-rule="evenodd" d="M130.526 25.0594C129.083 25.0594 127.782 24.6977 126.623 23.9743C125.486 23.2509 124.579 22.2753 123.901 21.0477C123.245 19.7981 122.917 18.3951 122.917 16.8386C122.917 15.2602 123.245 13.8462 123.901 12.5966C124.579 11.347 125.486 10.3605 126.623 9.63708C127.782 8.91365 129.083 8.55193 130.526 8.55193C131.684 8.55193 132.712 8.79307 133.608 9.27536C134.214 9.57895 134.739 9.96833 135.183 10.4435V8.88076H139.282V24.7306H135.183V23.1731C134.752 23.6348 134.238 24.0225 133.641 24.336C132.723 24.8183 131.684 25.0594 130.526 25.0594ZM131.28 21.2121C132.526 21.2121 133.521 20.8065 134.264 19.9954C135.03 19.1623 135.412 18.0991 135.412 16.8057C135.412 15.9288 135.237 15.1615 134.887 14.5038C134.559 13.8462 134.078 13.331 133.444 12.9583C132.832 12.5637 132.111 12.3664 131.28 12.3664C130.471 12.3664 129.76 12.5637 129.148 12.9583C128.536 13.331 128.044 13.8462 127.672 14.5038C127.323 15.1615 127.148 15.9288 127.148 16.8057C127.148 17.6607 127.323 18.4279 127.672 19.1075C128.022 19.7652 128.503 20.2804 129.115 20.6531C129.749 21.0257 130.471 21.2121 131.28 21.2121Z" fill="#191C20"/>
<path d="M67.243 24.7663H72.5135L75.3552 15.1248L78.197 24.7663H83.4674L88.143 8.86279H83.7648L80.6257 20.4425L77.2387 9.11128H73.4717L70.0683 20.4425L66.9456 8.86279H62.5674L67.243 24.7663Z" fill="#191C20"/>
<path d="M95.5448 24.7828C95.0491 26.7873 93.7935 28.0298 92.0257 28.0298C91.3152 28.0298 90.5717 27.8476 90.0265 27.6156L89.4978 31.0283C90.1917 31.3762 91.2491 31.724 92.5213 31.724C95.9248 31.724 97.8744 29.9846 99.1465 26.9364L106.631 8.86279H101.922L97.8248 20.4425L93.6778 8.86279H88.9857L95.5448 24.7828Z" fill="#191C20"/>
</svg>
